<svg width="50" height="49" viewBox="0 0 50 49" fill="none" xmlns="http://www.w3.org/2000/svg">
<path d="M9.19636 11.4601C10.7006 11.4601 11.9201 10.2407 11.9201 8.73639C11.9201 7.23214 10.7006 6.0127 9.19636 6.0127C7.6921 6.0127 6.47266 7.23214 6.47266 8.73639C6.47266 10.2407 7.6921 11.4601 9.19636 11.4601Z" fill="#EA5A47"/>
<path d="M10.2745 6.05713C10.6096 6.57959 10.7559 7.20089 10.6892 7.81794C10.6226 8.435 10.3469 9.01072 9.90808 9.44959C9.46922 9.88845 8.8935 10.1641 8.27644 10.2307C7.65938 10.2974 7.03808 10.1511 6.51562 9.81603C6.73472 10.1595 7.0281 10.4493 7.37414 10.6643C7.72018 10.8793 8.11005 11.0138 8.51501 11.058C8.91997 11.1022 9.32969 11.055 9.71396 10.9198C10.0982 10.7846 10.4473 10.5649 10.7353 10.2768C11.0234 9.98877 11.2431 9.63974 11.3783 9.25547C11.5135 8.87119 11.5607 8.46147 11.5165 8.05651C11.4723 7.65155 11.3377 7.26168 11.1228 6.91564C10.9078 6.5696 10.618 6.27622 10.2745 6.05713Z" fill="#D22F27"/>
<path d="M19.8331 11.4601C21.3373 11.4601 22.5568 10.2407 22.5568 8.73639C22.5568 7.23214 21.3373 6.0127 19.8331 6.0127C18.3288 6.0127 17.1094 7.23214 17.1094 8.73639C17.1094 10.2407 18.3288 11.4601 19.8331 11.4601Z" fill="#EA5A47"/>
<path d="M20.9151 6.05713C21.2502 6.57959 21.3965 7.20089 21.3298 7.81794C21.2632 8.435 20.9876 9.01072 20.5487 9.44959C20.1098 9.88845 19.5341 10.1641 18.9171 10.2307C18.3 10.2974 17.6787 10.1511 17.1562 9.81603C17.3753 10.1595 17.6687 10.4493 18.0148 10.6643C18.3608 10.8793 18.7507 11.0138 19.1556 11.058C19.5606 11.1022 19.9703 11.055 20.3546 10.9198C20.7389 10.7846 21.0879 10.5649 21.3759 10.2768C21.664 9.98877 21.8837 9.63974 22.0189 9.25547C22.1541 8.87119 22.2014 8.46147 22.1571 8.05651C22.1129 7.65155 21.9784 7.26168 21.7634 6.91564C21.5485 6.5696 21.2586 6.27622 20.9151 6.05713Z" fill="#D22F27"/>
<path d="M34.2471 11.4601C35.7514 11.4601 36.9708 10.2407 36.9708 8.73639C36.9708 7.23214 35.7514 6.0127 34.2471 6.0127C32.7429 6.0127 31.5234 7.23214 31.5234 8.73639C31.5234 10.2407 32.7429 11.4601 34.2471 11.4601Z" fill="#EA5A47"/>
<path d="M35.3253 6.05713C35.6603 6.57959 35.8067 7.20089 35.74 7.81794C35.6734 8.435 35.3977 9.01072 34.9589 9.44959C34.52 9.88845 33.9443 10.1641 33.3272 10.2307C32.7102 10.2974 32.0889 10.1511 31.5664 9.81603C31.7855 10.1595 32.0789 10.4493 32.4249 10.6643C32.771 10.8793 33.1608 11.0138 33.5658 11.058C33.9707 11.1022 34.3805 11.055 34.7647 10.9198C35.149 10.7846 35.4981 10.5649 35.7861 10.2768C36.0742 9.98877 36.2939 9.63974 36.4291 9.25547C36.5643 8.87119 36.6115 8.46147 36.5673 8.05651C36.5231 7.65155 36.3885 7.26168 36.1736 6.91564C35.9586 6.5696 35.6687 6.27622 35.3253 6.05713Z" fill="#D22F27"/>
<path d="M12.9307 22.0973C14.435 22.0973 15.6544 20.8779 15.6544 19.3736C15.6544 17.8693 14.435 16.6499 12.9307 16.6499C11.4265 16.6499 10.207 17.8693 10.207 19.3736C10.207 20.8779 11.4265 22.0973 12.9307 22.0973Z" fill="#FCEA2B"/>
<path d="M14.0088 16.6943C14.3438 17.2168 14.4902 17.8381 14.4236 18.4551C14.3569 19.0722 14.0813 19.6479 13.6424 20.0868C13.2036 20.5256 12.6279 20.8013 12.0108 20.8679C11.3937 20.9345 10.7724 20.7882 10.25 20.4531C10.4691 20.7965 10.7625 21.0864 11.1085 21.3013C11.4545 21.5162 11.8444 21.6508 12.2493 21.695C12.6542 21.7392 13.0639 21.692 13.4482 21.5568C13.8324 21.4216 14.1814 21.2018 14.4695 20.9138C14.7575 20.6258 14.9772 20.2768 15.1124 19.8925C15.2476 19.5083 15.2949 19.0986 15.2507 18.6936C15.2064 18.2887 15.0719 17.8989 14.857 17.5528C14.6421 17.2068 14.3522 16.9134 14.0088 16.6943Z" fill="#F1B31C"/>
<path d="M20.1378 22.0973C21.642 22.0973 22.8615 20.8779 22.8615 19.3736C22.8615 17.8693 21.642 16.6499 20.1378 16.6499C18.6335 16.6499 17.4141 17.8693 17.4141 19.3736C17.4141 20.8779 18.6335 22.0973 20.1378 22.0973Z" fill="#FCEA2B"/>
<path d="M21.2159 16.6943C21.551 17.2168 21.6974 17.8381 21.6308 18.4552C21.5641 19.0723 21.2885 19.648 20.8496 20.0869C20.4107 20.5258 19.835 20.8014 19.2179 20.868C18.6008 20.9346 17.9795 20.7882 17.457 20.4531C17.6761 20.7966 17.9695 21.0865 18.3155 21.3015C18.6616 21.5165 19.0514 21.651 19.4564 21.6953C19.8614 21.7395 20.2711 21.6923 20.6554 21.5571C21.0397 21.4219 21.3887 21.2022 21.6768 20.9141C21.9649 20.6261 22.1846 20.277 22.3198 19.8927C22.455 19.5084 22.5023 19.0987 22.458 18.6937C22.4138 18.2888 22.2792 17.8989 22.0643 17.5528C21.8493 17.2068 21.5594 16.9134 21.2159 16.6943Z" fill="#F1B31C"/>
<path d="M36.2628 22.0973C37.767 22.0973 38.9865 20.8779 38.9865 19.3736C38.9865 17.8693 37.767 16.6499 36.2628 16.6499C34.7585 16.6499 33.5391 17.8693 33.5391 19.3736C33.5391 20.8779 34.7585 22.0973 36.2628 22.0973Z" fill="#FCEA2B"/>
<path d="M37.3447 16.6943C37.6798 17.2168 37.8261 17.8381 37.7595 18.4551C37.6929 19.0722 37.4172 19.6479 36.9784 20.0868C36.5395 20.5256 35.9638 20.8013 35.3467 20.8679C34.7297 20.9345 34.1084 20.7882 33.5859 20.4531C33.805 20.7965 34.0984 21.0864 34.4444 21.3013C34.7905 21.5162 35.1803 21.6508 35.5852 21.695C35.9902 21.7392 36.3999 21.692 36.7841 21.5568C37.1684 21.4216 37.5174 21.2018 37.8054 20.9138C38.0934 20.6258 38.3132 20.2768 38.4484 19.8925C38.5836 19.5083 38.6308 19.0986 38.5866 18.6936C38.5424 18.2887 38.4078 17.8989 38.1929 17.5528C37.978 17.2068 37.6881 16.9134 37.3447 16.6943Z" fill="#F1B31C"/>
<path d="M43.8135 22.0973C45.3178 22.0973 46.5372 20.8779 46.5372 19.3736C46.5372 17.8693 45.3178 16.6499 43.8135 16.6499C42.3093 16.6499 41.0898 17.8693 41.0898 19.3736C41.0898 20.8779 42.3093 22.0973 43.8135 22.0973Z" fill="#FCEA2B"/>
<path d="M44.8917 16.6943C45.2268 17.2168 45.3732 17.8381 45.3065 18.4552C45.2399 19.0723 44.9643 19.648 44.5254 20.0869C44.0865 20.5258 43.5107 20.8014 42.8937 20.868C42.2766 20.9346 41.6553 20.7882 41.1328 20.4531C41.3519 20.7966 41.6453 21.0865 41.9913 21.3015C42.3373 21.5165 42.7272 21.651 43.1322 21.6953C43.5372 21.7395 43.9469 21.6923 44.3312 21.5571C44.7155 21.4219 45.0645 21.2022 45.3526 20.9141C45.6407 20.6261 45.8604 20.277 45.9956 19.8927C46.1308 19.5084 46.178 19.0987 46.1338 18.6937C46.0896 18.2888 45.955 17.8989 45.74 17.5528C45.5251 17.2068 45.2352 16.9134 44.8917 16.6943Z" fill="#F1B31C"/>
<path d="M12.9307 32.735C14.435 32.735 15.6544 31.5156 15.6544 30.0113C15.6544 28.507 14.435 27.2876 12.9307 27.2876C11.4265 27.2876 10.207 28.507 10.207 30.0113C10.207 31.5156 11.4265 32.735 12.9307 32.735Z" fill="#F4AA41"/>
<path d="M14.0089 27.332C14.344 27.8545 14.4904 28.4758 14.4237 29.0929C14.3571 29.71 14.0815 30.2857 13.6426 30.7246C13.2037 31.1635 12.6279 31.4391 12.0108 31.5057C11.3938 31.5723 10.7724 31.4259 10.25 31.0908C10.4691 31.4343 10.7624 31.7242 11.1085 31.9392C11.4545 32.1542 11.8444 32.2887 12.2494 32.333C12.6543 32.3772 13.0641 32.33 13.4484 32.1948C13.8327 32.0596 14.1817 31.8399 14.4698 31.5518C14.7578 31.2638 14.9776 30.9147 15.1128 30.5304C15.248 30.1461 15.2952 29.7364 15.251 29.3314C15.2068 28.9265 15.0722 28.5366 14.8572 28.1905C14.6423 27.8445 14.3524 27.5511 14.0089 27.332Z" fill="#E27022"/>
<path d="M20.1378 32.735C21.642 32.735 22.8615 31.5156 22.8615 30.0113C22.8615 28.507 21.642 27.2876 20.1378 27.2876C18.6335 27.2876 17.4141 28.507 17.4141 30.0113C17.4141 31.5156 18.6335 32.735 20.1378 32.735Z" fill="#F4AA41"/>
<path d="M21.2159 27.332C21.551 27.8545 21.6974 28.4758 21.6308 29.0929C21.5641 29.71 21.2885 30.2857 20.8496 30.7246C20.4107 31.1635 19.835 31.4391 19.2179 31.5057C18.6008 31.5723 17.9795 31.4259 17.457 31.0908C17.6761 31.4343 17.9695 31.7242 18.3155 31.9392C18.6616 32.1542 19.0514 32.2887 19.4564 32.333C19.8614 32.3772 20.2711 32.33 20.6554 32.1948C21.0397 32.0596 21.3887 31.8399 21.6768 31.5518C21.9649 31.2638 22.1846 30.9147 22.3198 30.5304C22.455 30.1461 22.5023 29.7364 22.458 29.3314C22.4138 28.9265 22.2792 28.5366 22.0643 28.1905C21.8493 27.8445 21.5594 27.5511 21.2159 27.332Z" fill="#E27022"/>
<path d="M30.087 32.735C31.5912 32.735 32.8107 31.5156 32.8107 30.0113C32.8107 28.507 31.5912 27.2876 30.087 27.2876C28.5827 27.2876 27.3633 28.507 27.3633 30.0113C27.3633 31.5156 28.5827 32.735 30.087 32.735Z" fill="#F4AA41"/>
<path d="M31.1651 27.332C31.5002 27.8545 31.6466 28.4758 31.58 29.0929C31.5134 29.71 31.2377 30.2857 30.7988 30.7246C30.3599 31.1635 29.7842 31.4391 29.1671 31.5057C28.55 31.5723 27.9287 31.4259 27.4062 31.0908C27.6253 31.4343 27.9187 31.7242 28.2647 31.9392C28.6108 32.1542 29.0006 32.2887 29.4056 32.333C29.8106 32.3772 30.2203 32.33 30.6046 32.1948C30.9889 32.0596 31.338 31.8399 31.626 31.5518C31.9141 31.2638 32.1338 30.9147 32.269 30.5304C32.4042 30.1461 32.4515 29.7364 32.4072 29.3314C32.363 28.9265 32.2285 28.5366 32.0135 28.1905C31.7985 27.8445 31.5086 27.5511 31.1651 27.332Z" fill="#E27022"/>
<path d="M40.4229 32.735C41.9272 32.735 43.1466 31.5156 43.1466 30.0113C43.1466 28.507 41.9272 27.2876 40.4229 27.2876C38.9187 27.2876 37.6992 28.507 37.6992 30.0113C37.6992 31.5156 38.9187 32.735 40.4229 32.735Z" fill="#F4AA41"/>
<path d="M41.5011 27.332C41.8362 27.8545 41.9826 28.4758 41.9159 29.0929C41.8493 29.71 41.5737 30.2857 41.1348 30.7246C40.6959 31.1635 40.1201 31.4391 39.503 31.5057C38.8859 31.5723 38.2646 31.4259 37.7422 31.0908C37.9613 31.4343 38.2546 31.7242 38.6007 31.9392C38.9467 32.1542 39.3366 32.2887 39.7416 32.333C40.1465 32.3772 40.5563 32.33 40.9406 32.1948C41.3249 32.0596 41.6739 31.8399 41.962 31.5518C42.25 31.2638 42.4698 30.9147 42.605 30.5304C42.7402 30.1461 42.7874 29.7364 42.7432 29.3314C42.699 28.9265 42.5644 28.5366 42.3494 28.1905C42.1344 27.8445 41.8445 27.5511 41.5011 27.332Z" fill="#E27022"/>
<path d="M1.09375 47.8735V1.87354H48.5M48.5 48H1.09375" stroke="black" stroke-width="2" stroke-linecap="round" stroke-linejoin="round"/>
<path d="M48.9102 47.8735V1.87354" stroke="black" stroke-width="2" stroke-linecap="round" stroke-linejoin="round"/>
<path d="M9.20026 11.4601C10.7045 11.4601 11.924 10.2407 11.924 8.73639C11.924 7.23214 10.7045 6.0127 9.20026 6.0127C7.696 6.0127 6.47656 7.23214 6.47656 8.73639C6.47656 10.2407 7.696 11.4601 9.20026 11.4601Z" stroke="black" stroke-width="1.3618" stroke-miterlimit="10"/>
<path d="M19.837 11.4601C21.3412 11.4601 22.5607 10.2407 22.5607 8.73639C22.5607 7.23214 21.3412 6.0127 19.837 6.0127C18.3327 6.0127 17.1133 7.23214 17.1133 8.73639C17.1133 10.2407 18.3327 11.4601 19.837 11.4601Z" stroke="black" stroke-width="1.3618" stroke-miterlimit="10"/>
<path d="M26.6964 11.4601C28.2006 11.4601 29.4201 10.2407 29.4201 8.73639C29.4201 7.23214 28.2006 6.0127 26.6964 6.0127C25.1921 6.0127 23.9727 7.23214 23.9727 8.73639C23.9727 10.2407 25.1921 11.4601 26.6964 11.4601Z" fill="#EA5A47"/>
<path d="M27.7745 6.05713C28.1095 6.57959 28.2559 7.20089 28.1892 7.81794C28.1226 8.435 27.8469 9.01072 27.4081 9.44959C26.9692 9.88845 26.3935 10.1641 25.7764 10.2307C25.1594 10.2974 24.5381 10.1511 24.0156 9.81603C24.2347 10.1595 24.5281 10.4493 24.8741 10.6643C25.2202 10.8793 25.61 11.0138 26.015 11.058C26.42 11.1022 26.8297 11.055 27.214 10.9198C27.5982 10.7846 27.9473 10.5649 28.2353 10.2768C28.5234 9.98877 28.7431 9.63974 28.8783 9.25547C29.0135 8.87119 29.0607 8.46147 29.0165 8.05651C28.9723 7.65155 28.8378 7.26168 28.6228 6.91564C28.4078 6.5696 28.118 6.27622 27.7745 6.05713Z" fill="#D22F27"/>
<path d="M26.7003 11.4601C28.2045 11.4601 29.424 10.2407 29.424 8.73639C29.424 7.23214 28.2045 6.0127 26.7003 6.0127C25.196 6.0127 23.9766 7.23214 23.9766 8.73639C23.9766 10.2407 25.196 11.4601 26.7003 11.4601Z" stroke="black" stroke-width="1.3618" stroke-miterlimit="10"/>
<path d="M34.2471 11.4601C35.7514 11.4601 36.9708 10.2407 36.9708 8.73639C36.9708 7.23214 35.7514 6.0127 34.2471 6.0127C32.7429 6.0127 31.5234 7.23214 31.5234 8.73639C31.5234 10.2407 32.7429 11.4601 34.2471 11.4601Z" stroke="black" stroke-width="1.3618" stroke-miterlimit="10"/>
<path d="M12.9307 22.0973C14.435 22.0973 15.6544 20.8779 15.6544 19.3736C15.6544 17.8693 14.435 16.6499 12.9307 16.6499C11.4265 16.6499 10.207 17.8693 10.207 19.3736C10.207 20.8779 11.4265 22.0973 12.9307 22.0973Z" stroke="black" stroke-width="1.3618" stroke-miterlimit="10"/>
<path d="M20.1378 22.0973C21.642 22.0973 22.8615 20.8779 22.8615 19.3736C22.8615 17.8693 21.642 16.6499 20.1378 16.6499C18.6335 16.6499 17.4141 17.8693 17.4141 19.3736C17.4141 20.8779 18.6335 22.0973 20.1378 22.0973Z" stroke="black" stroke-width="1.3618" stroke-miterlimit="10"/>
<path d="M36.2667 22.0973C37.7709 22.0973 38.9904 20.8779 38.9904 19.3736C38.9904 17.8693 37.7709 16.6499 36.2667 16.6499C34.7624 16.6499 33.543 17.8693 33.543 19.3736C33.543 20.8779 34.7624 22.0973 36.2667 22.0973Z" stroke="black" stroke-width="1.3618" stroke-miterlimit="10"/>
<path d="M43.8135 22.0973C45.3178 22.0973 46.5372 20.8779 46.5372 19.3736C46.5372 17.8693 45.3178 16.6499 43.8135 16.6499C42.3093 16.6499 41.0898 17.8693 41.0898 19.3736C41.0898 20.8779 42.3093 22.0973 43.8135 22.0973Z" stroke="black" stroke-width="1.3618" stroke-miterlimit="10"/>
<path d="M12.9307 32.735C14.435 32.735 15.6544 31.5156 15.6544 30.0113C15.6544 28.507 14.435 27.2876 12.9307 27.2876C11.4265 27.2876 10.207 28.507 10.207 30.0113C10.207 31.5156 11.4265 32.735 12.9307 32.735Z" stroke="black" stroke-width="1.3618" stroke-miterlimit="10"/>
<path d="M20.1378 32.735C21.642 32.735 22.8615 31.5156 22.8615 30.0113C22.8615 28.507 21.642 27.2876 20.1378 27.2876C18.6335 27.2876 17.4141 28.507 17.4141 30.0113C17.4141 31.5156 18.6335 32.735 20.1378 32.735Z" stroke="black" stroke-width="1.3618" stroke-miterlimit="10"/>
<path d="M30.0909 32.735C31.5951 32.735 32.8146 31.5156 32.8146 30.0113C32.8146 28.507 31.5951 27.2876 30.0909 27.2876C28.5866 27.2876 27.3672 28.507 27.3672 30.0113C27.3672 31.5156 28.5866 32.735 30.0909 32.735Z" stroke="black" stroke-width="1.3618" stroke-miterlimit="10"/>
<path d="M40.4229 32.735C41.9272 32.735 43.1466 31.5156 43.1466 30.0113C43.1466 28.507 41.9272 27.2876 40.4229 27.2876C38.9187 27.2876 37.6992 28.507 37.6992 30.0113C37.6992 31.5156 38.9187 32.735 40.4229 32.735Z" stroke="black" stroke-width="1.3618" stroke-miterlimit="10"/>
</svg>
