<svg width="388" height="412" viewBox="0 0 388 412" fill="none" xmlns="http://www.w3.org/2000/svg">
<path fill-rule="evenodd" clip-rule="evenodd" d="M196.897 27.5283C193.355 27.4664 190.433 30.2923 190.372 33.84C190.31 37.3878 193.131 40.314 196.673 40.376C200.215 40.4379 203.136 37.6121 203.198 34.0643C203.26 30.5165 200.439 27.5903 196.897 27.5283ZM190.479 395.826C186.937 395.764 184.016 398.59 183.954 402.138C183.892 405.685 186.713 408.612 190.255 408.674C193.797 408.735 196.718 405.91 196.78 402.362C196.842 398.814 194.021 395.888 190.479 395.826Z" fill="#EEEEEE"/>
<path fill-rule="evenodd" clip-rule="evenodd" d="M101.325 51.3964C98.2267 53.1166 97.1075 57.027 98.825 60.1306C100.543 63.2342 104.446 64.3557 107.545 62.6355C110.643 60.9153 111.762 57.0049 110.044 53.9014C108.327 50.7978 104.423 49.6763 101.325 51.3964ZM279.609 373.566C276.511 375.286 275.392 379.196 277.11 382.3C278.827 385.403 282.731 386.525 285.829 384.805C288.927 383.085 290.046 379.174 288.329 376.071C286.611 372.967 282.707 371.846 279.609 373.566Z" fill="#EEEEEE"/>
<path fill-rule="evenodd" clip-rule="evenodd" d="M358.112 284.687C356.785 287.977 358.372 291.722 361.657 293.051C364.941 294.38 368.679 292.791 370.006 289.501C371.333 286.211 369.747 282.466 366.462 281.137C363.178 279.808 359.439 281.397 358.112 284.687ZM17.1484 146.699C15.8214 149.989 17.4082 153.734 20.6927 155.063C23.9771 156.392 27.7155 154.803 29.0425 151.513C30.3695 148.223 28.7827 144.478 25.4982 143.149C22.2137 141.82 18.4754 143.409 17.1484 146.699Z" fill="#EEEEEE"/>
<path fill-rule="evenodd" clip-rule="evenodd" d="M3.32131 214.774C3.25949 218.321 6.0806 221.247 9.62247 221.309C13.1644 221.371 16.0857 218.546 16.1475 214.998C16.2093 211.45 13.3882 208.524 9.84635 208.462C6.30448 208.4 3.38313 211.226 3.32131 214.774ZM371.006 221.202C370.944 224.75 373.765 227.676 377.307 227.738C380.849 227.8 383.771 224.974 383.832 221.426C383.894 217.879 381.073 214.952 377.531 214.891C373.989 214.829 371.068 217.654 371.006 221.202Z" fill="#EEEEEE"/>
<path fill-rule="evenodd" clip-rule="evenodd" d="M27.1531 310.504C28.8706 313.608 32.7744 314.73 35.8725 313.009C38.9706 311.289 40.0898 307.379 38.3723 304.275C36.6548 301.172 32.751 300.05 29.6529 301.77C26.5549 303.49 25.4356 307.401 27.1531 310.504ZM348.786 131.923C350.504 135.027 354.407 136.148 357.506 134.428C360.604 132.708 361.723 128.797 360.005 125.694C358.288 122.59 354.384 121.469 351.286 123.189C348.188 124.909 347.069 128.819 348.786 131.923Z" fill="#EEEEEE"/>
<path fill-rule="evenodd" clip-rule="evenodd" d="M284.972 65.738C288.009 67.5654 291.949 66.5811 293.774 63.5394C295.598 60.4977 294.616 56.5506 291.58 54.7232C288.543 52.8957 284.603 53.8801 282.778 56.9217C280.954 59.9634 281.936 63.9106 284.972 65.738ZM95.5722 381.479C98.6084 383.306 102.549 382.322 104.373 379.28C106.198 376.239 105.215 372.292 102.179 370.464C99.1433 368.637 95.2028 369.621 93.3782 372.663C91.5536 375.704 92.5359 379.652 95.5722 381.479Z" fill="#EEEEEE"/>
<path fill-rule="evenodd" clip-rule="evenodd" d="M164.26 4.15035C160.761 4.70543 158.374 7.99646 158.928 11.5011C159.482 15.0057 162.768 17.3968 166.266 16.8417C169.765 16.2867 172.152 12.9956 171.598 9.49096C171.044 5.98635 167.758 3.59527 164.26 4.15035ZM221.787 367.969C218.288 368.525 215.901 371.816 216.455 375.32C217.009 378.825 220.295 381.216 223.794 380.661C227.293 380.106 229.68 376.815 229.126 373.31C228.571 369.805 225.286 367.414 221.787 367.969Z" fill="#EEEEEE"/>
<path fill-rule="evenodd" clip-rule="evenodd" d="M66.7004 50.7597C64.0679 53.1339 63.8554 57.1963 66.2258 59.8332C68.5961 62.4702 72.6516 62.6831 75.2841 60.3088C77.9166 57.9346 78.1291 53.8722 75.7588 51.2353C73.3884 48.5983 69.3329 48.3854 66.7004 50.7597ZM312.767 324.5C310.134 326.875 309.922 330.937 312.292 333.574C314.663 336.211 318.718 336.424 321.351 334.049C323.983 331.675 324.196 327.613 321.825 324.976C319.455 322.339 315.399 322.126 312.767 324.5Z" fill="#EEEEEE"/>
<path fill-rule="evenodd" clip-rule="evenodd" d="M17.5937 121.004C16.2667 124.294 17.8535 128.038 21.138 129.368C24.4225 130.697 28.1608 129.107 29.4878 125.818C30.8148 122.528 29.228 118.783 25.9435 117.454C22.6591 116.125 18.9207 117.714 17.5937 121.004ZM358.558 258.992C357.231 262.282 358.817 266.026 362.102 267.355C365.386 268.685 369.125 267.095 370.452 263.805C371.779 260.515 370.192 256.771 366.907 255.442C363.623 254.112 359.885 255.702 358.558 258.992Z" fill="#EEEEEE"/>
<path fill-rule="evenodd" clip-rule="evenodd" d="M366.209 149.403C367.066 152.846 370.547 154.941 373.984 154.082C377.422 153.224 379.513 149.737 378.656 146.294C377.799 142.851 374.318 140.756 370.881 141.614C367.444 142.473 365.352 145.96 366.209 149.403ZM9.39127 238.516C10.2482 241.958 13.7293 244.054 17.1665 243.195C20.6037 242.337 22.6953 238.85 21.8384 235.407C20.9814 231.964 17.5003 229.869 14.0631 230.727C10.6259 231.586 8.53426 235.073 9.39127 238.516Z" fill="#EEEEEE"/>
<path fill-rule="evenodd" clip-rule="evenodd" d="M46.1445 312.355C48.3738 315.113 52.4127 315.538 55.1657 313.305C57.9186 311.072 58.343 307.026 56.1136 304.269C53.8843 301.511 49.8454 301.086 47.0925 303.319C44.3396 305.552 43.9151 309.598 46.1445 312.355ZM331.933 80.5425C334.162 83.3001 338.201 83.7254 340.954 81.4924C343.707 79.2594 344.131 75.2137 341.902 72.4561C339.672 69.6985 335.634 69.2732 332.881 71.5062C330.128 73.7392 329.703 77.7849 331.933 80.5425Z" fill="#EEEEEE"/>
<path fill-rule="evenodd" clip-rule="evenodd" d="M227.884 17.9203C231.361 18.5973 234.728 16.3225 235.404 12.8394C236.08 9.35627 233.808 5.98379 230.33 5.30674C226.853 4.62969 223.487 6.90446 222.811 10.3876C222.135 13.8707 224.406 17.2432 227.884 17.9203ZM157.714 379.507C161.192 380.184 164.559 377.909 165.235 374.426C165.91 370.943 163.639 367.57 160.162 366.893C156.685 366.216 153.319 368.491 152.643 371.974C151.967 375.457 154.237 378.83 157.714 379.507Z" fill="#FCB040"/>
</svg>
