<svg width="535" height="545" viewBox="0 0 535 545" fill="none" xmlns="http://www.w3.org/2000/svg">
<path fill-rule="evenodd" clip-rule="evenodd" d="M175.885 119.411C172.849 121.239 171.866 125.186 173.691 128.227C175.515 131.269 179.456 132.253 182.492 130.425C185.528 128.598 186.511 124.651 184.687 121.609C182.862 118.568 178.922 117.584 175.885 119.411ZM365.286 435.152C362.249 436.979 361.267 440.926 363.091 443.967C364.916 447.009 368.856 447.993 371.893 446.165C374.929 444.338 375.912 440.392 374.087 437.35C372.263 434.309 368.322 433.324 365.286 435.152Z" fill="#EEEEEE"/>
<path fill-rule="evenodd" clip-rule="evenodd" d="M107.461 190.385C105.744 193.489 106.863 197.399 109.961 199.119C113.059 200.839 116.963 199.718 118.681 196.615C120.398 193.511 119.279 189.601 116.18 187.881C113.082 186.16 109.178 187.282 107.461 190.385ZM429.094 368.967C427.377 372.07 428.496 375.98 431.595 377.701C434.693 379.421 438.597 378.3 440.314 375.196C442.032 372.093 440.912 368.182 437.814 366.462C434.716 364.742 430.812 365.863 429.094 368.967Z" fill="#EEEEEE"/>
<path fill-rule="evenodd" clip-rule="evenodd" d="M448.651 251.924C449.266 255.419 452.593 257.752 456.082 257.136C459.57 256.52 461.9 253.187 461.285 249.693C460.67 246.199 457.343 243.865 453.854 244.481C450.366 245.098 448.036 248.43 448.651 251.924ZM86.497 315.888C87.1121 319.383 90.4388 321.716 93.9274 321.1C97.416 320.484 99.7454 317.151 99.1303 313.657C98.5151 310.163 95.1884 307.829 91.6998 308.445C88.2112 309.062 85.8818 312.394 86.497 315.888Z" fill="#EEEEEE"/>
<path fill-rule="evenodd" clip-rule="evenodd" d="M426 191.238C427.825 194.28 431.765 195.264 434.801 193.437C437.838 191.609 438.82 187.662 436.996 184.62C435.171 181.579 431.231 180.595 428.194 182.422C425.158 184.25 424.176 188.197 426 191.238ZM110.785 380.955C112.609 383.996 116.55 384.98 119.586 383.153C122.622 381.325 123.605 377.378 121.78 374.337C119.956 371.295 116.015 370.311 112.979 372.139C109.943 373.966 108.96 377.913 110.785 380.955Z" fill="#EEEEEE"/>
<path fill-rule="evenodd" clip-rule="evenodd" d="M359.922 127.322C363.02 129.042 366.924 127.921 368.641 124.818C370.359 121.714 369.239 117.804 366.141 116.084C363.043 114.363 359.139 115.485 357.422 118.588C355.704 121.691 356.824 125.602 359.922 127.322ZM181.638 449.492C184.736 451.212 188.64 450.091 190.357 446.987C192.074 443.884 190.955 439.973 187.857 438.253C184.759 436.533 180.855 437.654 179.137 440.758C177.42 443.861 178.539 447.771 181.638 449.492Z" fill="#EEEEEE"/>
<path fill-rule="evenodd" clip-rule="evenodd" d="M277.21 473.361C280.752 473.299 283.573 470.373 283.511 466.825C283.45 463.278 280.528 460.452 276.986 460.514C273.444 460.576 270.623 463.502 270.685 467.05C270.747 470.597 273.668 473.423 277.21 473.361ZM270.792 105.064C274.334 105.002 277.155 102.075 277.093 98.5274C277.032 94.9797 274.11 92.1538 270.568 92.2158C267.027 92.2777 264.205 95.2039 264.267 98.7517C264.329 102.3 267.25 105.125 270.792 105.064Z" fill="#EEEEEE"/>
<path fill-rule="evenodd" clip-rule="evenodd" d="M135.839 116.912C133.165 119.24 132.882 123.298 135.206 125.976C137.53 128.654 141.581 128.938 144.255 126.61C146.928 124.282 147.212 120.224 144.888 117.546C142.564 114.868 138.512 114.584 135.839 116.912ZM377.099 394.912C374.425 397.24 374.142 401.298 376.466 403.976C378.79 406.654 382.841 406.938 385.515 404.61C388.188 402.282 388.471 398.224 386.147 395.546C383.823 392.868 379.772 392.584 377.099 394.912Z" fill="#EEEEEE"/>
<path fill-rule="evenodd" clip-rule="evenodd" d="M431.261 309.759C430.285 313.169 432.254 316.727 435.659 317.705C439.064 318.683 442.616 316.711 443.592 313.3C444.569 309.889 442.6 306.331 439.195 305.353C435.79 304.375 432.238 306.348 431.261 309.759ZM77.7658 208.226C76.7893 211.637 78.7582 215.195 82.1633 216.173C85.5684 217.151 89.1204 215.179 90.0968 211.768C91.0733 208.357 89.1044 204.799 85.6993 203.821C82.2942 202.843 78.7422 204.816 77.7658 208.226Z" fill="#EEEEEE"/>
<path fill-rule="evenodd" clip-rule="evenodd" d="M435.437 229.893C436.052 233.387 439.378 235.72 442.867 235.104C446.356 234.488 448.685 231.156 448.07 227.661C447.455 224.167 444.128 221.834 440.639 222.45C437.151 223.066 434.821 226.398 435.437 229.893ZM73.2821 293.857C73.8972 297.351 77.224 299.684 80.7125 299.068C84.2011 298.452 86.5305 295.12 85.9154 291.625C85.3003 288.131 81.9735 285.798 78.485 286.414C74.9964 287.03 72.667 290.362 73.2821 293.857Z" fill="#EEEEEE"/>
<path fill-rule="evenodd" clip-rule="evenodd" d="M383.949 132.898C386.497 135.363 390.558 135.292 393.018 132.739C395.479 130.187 395.407 126.12 392.859 123.655C390.311 121.19 386.251 121.261 383.79 123.813C381.33 126.366 381.401 130.433 383.949 132.898ZM128.494 397.87C131.043 400.334 135.103 400.263 137.564 397.711C140.025 395.159 139.954 391.091 137.406 388.626C134.857 386.162 130.797 386.233 128.336 388.785C125.875 391.337 125.946 395.405 128.494 397.87Z" fill="#EEEEEE"/>
<path fill-rule="evenodd" clip-rule="evenodd" d="M318.451 92.693C321.801 93.8482 325.451 92.0648 326.604 88.7097C327.757 85.3546 325.977 81.6983 322.628 80.5432C319.279 79.388 315.629 81.1714 314.475 84.5265C313.322 87.8816 315.102 91.5378 318.451 92.693ZM198.727 440.978C202.076 442.133 205.726 440.35 206.879 436.995C208.033 433.639 206.252 429.983 202.903 428.828C199.554 427.673 195.904 429.456 194.75 432.811C193.597 436.166 195.377 439.823 198.727 440.978Z" fill="#EEEEEE"/>
<path fill-rule="evenodd" clip-rule="evenodd" d="M197.081 94.8152C200.388 93.5436 202.04 89.8274 200.771 86.5148C199.501 83.2021 195.791 81.5475 192.484 82.8191C189.177 84.0907 187.525 87.807 188.795 91.1196C190.064 94.4323 193.774 96.0868 197.081 94.8152ZM328.868 438.703C332.175 437.432 333.827 433.715 332.557 430.403C331.288 427.09 327.578 425.436 324.271 426.707C320.964 427.979 319.312 431.695 320.581 435.008C321.851 438.32 325.561 439.975 328.868 438.703Z" fill="#FCB040"/>
</svg>
