<svg xmlns="http://www.w3.org/2000/svg" viewBox="0 0 3377.45 727.34">
  <defs>
    <style>
      .cls-1 {
        fill: #fff;
      }

      .cls-2, .cls-3, .cls-5 {
        fill: #f8af41;
      }

      .cls-3, .cls-4, .cls-5 {
        stroke: #f8af41;
        stroke-linecap: round;
        stroke-linejoin: round;
      }

      .cls-3 {
        stroke-width: 5px;
      }

      .cls-4 {
        fill: none;
        stroke-width: 50px;
      }

      .cls-5 {
        stroke-width: 12px;
      }
    </style>
  </defs>
  <g id="Слой_2" data-name="Слой 2">
    <g id="Слой_1-2" data-name="Слой 1">
      <g>
        <g>
          <path class="cls-1" d="M818.38,259.69h47.83V395.16l99.23-135.47h45.16v208H963.06V332.48L863.84,467.65H818.38Z"/>
          <path class="cls-1" d="M1250.64,259.69v208h-48.13V382.39H1108v85.26h-48.13v-208H1108v82h94.47v-82Z"/>
          <path class="cls-1" d="M1459.19,298.91h-66.55V467.65h-47.53V298.91h-66.25V259.69h180.33Z"/>
          <path class="cls-1" d="M1648.14,429v38.62h-161v-208h157.16v38.62H1534.94v45.16h96.56V380.9h-96.56V429Z"/>
          <path class="cls-1" d="M1822.67,268.9Q1843,278.11,1854,295t11,40.11q0,22.88-11,40t-31.34,26.14q-20.36,9.06-48,9.06H1732.8v57.34h-48.13v-208h90Q1802.32,259.69,1822.67,268.9ZM1805,361.74q11.28-9.36,11.29-26.59,0-17.52-11.29-26.89t-33-9.35H1732.8V371.1H1772Q1793.7,371.1,1805,361.74Z"/>
          <path class="cls-2" d="M2084,259.69v208h-47.83V298.91h-93.88V467.65h-47.83v-208Z"/>
          <path class="cls-2" d="M2274.09,423.09h-96.55l-18.42,44.56H2109.8l92.69-208H2250l93,208h-50.5Zm-15.15-36.54-33-79.62-33,79.62Z"/>
          <path class="cls-2" d="M2506.26,268.9q20.34,9.21,31.34,26.14t11,40.11q0,22.88-11,40t-31.34,26.14q-20.36,9.06-48,9.06h-41.89v57.34h-48.13v-208h90Q2485.91,259.69,2506.26,268.9Zm-17.68,92.84q11.3-9.36,11.29-26.59,0-17.52-11.29-26.89t-33-9.35h-39.21V371.1h39.21Q2477.29,371.1,2488.58,361.74Z"/>
          <path class="cls-2" d="M2731.31,298.91h-66.55V467.65h-47.54V298.91H2551V259.69h180.34Z"/>
          <path class="cls-2" d="M2950,259.69v208h-48.13V382.39h-94.47v85.26h-48.13v-208h48.13v82h94.47v-82Z"/>
          <path class="cls-2" d="M3160.59,429v38.62h-161v-208h157.16v38.62H3047.39v45.16H3144V380.9h-96.56V429Z"/>
          <path class="cls-2" d="M3335.12,268.9q20.34,9.21,31.34,26.14t11,40.11q0,22.88-11,40t-31.34,26.14q-20.35,9.06-48,9.06h-41.89v57.34h-48.13v-208h90Q3314.77,259.69,3335.12,268.9Zm-17.68,92.84q11.28-9.36,11.29-26.59,0-17.52-11.29-26.89t-33-9.35h-39.21V371.1h39.21Q3306.15,371.1,3317.44,361.74Z"/>
        </g>
        <g>
          <path class="cls-3" d="M218.58,376.3S151,386.52,143,428.32l-23.81-92L226.47,169.42s-20,98.93,14.4,111.21C277.09,293.57,218.58,376.3,218.58,376.3Z"/>
          <path class="cls-4" d="M696.39,300.13a340.18,340.18,0,0,1,6,63.54c0,187-151.63,338.67-338.67,338.67S25,550.71,25,363.67,176.63,25,363.67,25a337,337,0,0,1,181.6,52.76"/>
          <path class="cls-4" d="M599.47,332.7a239.63,239.63,0,0,1,2,31c0,131.33-106.47,237.8-237.8,237.8S125.87,495,125.87,363.67s106.47-237.8,237.8-237.8a236.7,236.7,0,0,1,128.54,37.7"/>
          <path class="cls-4" d="M500.2,377.24a137.19,137.19,0,1,1-59.82-127.33"/>
          <circle class="cls-5" cx="184.74" cy="314.58" r="41.73"/>
          <circle class="cls-2" cx="577.64" cy="263.53" r="23.83"/>
        </g>
      </g>
    </g>
  </g>
</svg>
